<?xml version="1.0" encoding="UTF-8"?>
<!DOCTYPE svg PUBLIC "-//W3C//DTD SVG 1.1//EN" "http://www.w3.org/Graphics/SVG/1.1/DTD/svg11.dtd">
<!-- Creator: CorelDRAW 2018 (64-Bit) -->
<svg xmlns="http://www.w3.org/2000/svg" xml:space="preserve" width="3.18376in" height="2.42072in" version="1.1" style="shape-rendering:geometricPrecision; text-rendering:geometricPrecision; image-rendering:optimizeQuality; fill-rule:evenodd; clip-rule:evenodd"
viewBox="0 0 1954.44 1486.03"
 xmlns:xlink="http://www.w3.org/1999/xlink">
 <defs>
  <style type="text/css">
   <![CDATA[
    .fil0 {fill:#87754D}
   ]]>
  </style>
 </defs>
 <g id="Capa_x0020_1">
  <metadata id="CorelCorpID_0Corel-Layer"/>
  <g id="_2384804234544">
   <ellipse class="fil0" cx="1625.17" cy="605.92" rx="201.42" ry="20.29"/>
   <path class="fil0" d="M685.45 452.44c64.94,111.49 102.14,241.12 102.14,379.43 0,59.44 -6.87,117.28 -19.86,172.76 54.13,212.85 174.07,349.46 317.82,420.85 72.12,-117.26 121.27,-250.15 141.22,-392.4 -210.36,-109.31 -286.73,-399.8 -541.32,-580.66l0 0.01z"/>
   <path class="fil0" d="M1309.53 1064.28c-40.61,138.49 -109.69,264.82 -200.46,372.22 420.29,185.02 1018.7,-164.03 797.97,-785.88 -190.89,50.07 -379.06,44.84 -564.6,-13.72 18.77,143.65 11.99,286.33 -32.12,427.58 -0.27,-0.06 -0.53,-0.13 -0.79,-0.2l0 0z"/>
   <path class="fil0" d="M529.17 367.31c-120.61,-48.46 -272.76,-75.14 -471.87,-65.65 -4.92,-6.85 -15.21,-11.56 -27.11,-11.56 -16.67,0 -30.19,9.24 -30.19,20.66 0,11.41 13.52,20.66 30.19,20.66 10.64,0 20.01,-3.78 25.38,-9.46 286.06,17.77 584.62,198.88 683.15,554.86 -3.23,-197.59 -82.37,-376.74 -209.55,-509.52l0 0.01z"/>
   <circle class="fil0" cx="1589.54" cy="281.9" r="55.94"/>
   <circle class="fil0" cx="1707.62" cy="81.53" r="81.53"/>
   <circle class="fil0" cx="1645.88" cy="454.81" r="34.08"/>
  </g>
 </g>
</svg>
